/* XPM */
static char *_03_yobikoh_83_100[] = {
/* columns rows colors chars-per-pixel */
"83 100 158 2 ",
"   c #00456D",
".  c #1C4668",
"X  c #1E4A6C",
"o  c #064C74",
"O  c #124F75",
"+  c #1F4E71",
"@  c #165177",
"#  c #1D5175",
"$  c #145178",
"%  c #1E5579",
"&  c #1C597E",
"*  c #204C6F",
"=  c #214E71",
"-  c #245276",
";  c #265679",
":  c #2A5779",
">  c #27587C",
",  c #295A7D",
"<  c #305D7F",
"1  c #53575E",
"2  c #565C64",
"3  c #5A5F65",
"4  c #585F68",
"5  c #5B6067",
"6  c #5E646C",
"7  c #60666E",
"8  c #63686F",
"9  c #606770",
"0  c #646B74",
"q  c #676F78",
"w  c #686F78",
"e  c #67717B",
"r  c #6B727B",
"t  c #2B5D80",
"y  c #325F80",
"u  c #2E6083",
"i  c #336284",
"p  c #366688",
"a  c #366C8D",
"s  c #3C6A8B",
"d  c #3C7494",
"f  c #436D8C",
"g  c #46718F",
"h  c #51738E",
"j  c #467392",
"k  c #4A7694",
"l  c #4D7896",
"z  c #4D7A99",
"x  c #5C7D97",
"c  c #527D9B",
"v  c #597E99",
"b  c #6F7680",
"n  c #707780",
"m  c #737A84",
"M  c #787F87",
"N  c #737F89",
"B  c #56819E",
"V  c #5B829E",
"C  c #76838E",
"Z  c #7B828C",
"A  c #62819A",
"S  c #7F8690",
"D  c #7C8C97",
"F  c #7D8D98",
"G  c #5287A4",
"H  c #5B83A1",
"J  c #658BA6",
"K  c #688CA6",
"L  c #668DA9",
"P  c #778DA2",
"I  c #6C92AD",
"U  c #7397B1",
"Y  c #769AB3",
"T  c #7A9EB6",
"R  c #7DA1BA",
"E  c #808691",
"W  c #848B94",
"Q  c #878E98",
"!  c #888F9A",
"~  c #8B939C",
"^  c #90989F",
"/  c #8F97A1",
"(  c #859EAC",
")  c #9299A4",
"_  c #969EA9",
"`  c #9BA2AC",
"'  c #8AA4B3",
"]  c #8EA9B7",
"[  c #9EA6B3",
"{  c #9FA8B6",
"}  c #95B0BE",
"|  c #A0A7B4",
" . c #A2AAB6",
".. c #A6ADB9",
"X. c #A8AFBB",
"o. c #A7B0BC",
"O. c #AAB2BD",
"+. c #86ABC1",
"@. c #8CADC3",
"#. c #94B2C2",
"$. c #94B4C9",
"%. c #9AB9CE",
"&. c #9FBED1",
"*. c #AEB5C0",
"=. c #A4BECC",
"-. c #B0B7C2",
";. c #B3BBC3",
":. c #A0BED2",
">. c #B4C2CE",
",. c #A4C3D6",
"<. c #AAC5D7",
"1. c #A7C6D8",
"2. c #AAC5D8",
"3. c #A4C9DC",
"4. c #ADC9DC",
"5. c #B1CAD3",
"6. c #B9CCD7",
"7. c #B2CEDE",
"8. c #BCCFDA",
"9. c #B7D2DA",
"0. c #BDD1DC",
"q. c #A3D0E7",
"w. c #A9D1E3",
"e. c #AED7E9",
"r. c #B3D0E0",
"t. c #BBD5E4",
"y. c #BEDAE3",
"u. c #B1DBEE",
"i. c #BED8E8",
"p. c #A7D9F1",
"a. c #AEDCF2",
"s. c #B2DEF3",
"d. c #B6E0F4",
"f. c #B9E2F4",
"g. c #CDD7DD",
"h. c #C3DBE5",
"j. c #C2DCEB",
"k. c #D6DFE5",
"l. c #C6E1EC",
"z. c #C9E3ED",
"x. c #DAE4E9",
"c. c #C4E6F5",
"v. c #CBE5F1",
"b. c #CDEBF5",
"n. c #CFEEF8",
"m. c #D0E7F5",
"M. c #D2EAF7",
"N. c #DFE9F0",
"B. c #D6EEFB",
"V. c #D9EFFB",
"C. c #CFF1FB",
"Z. c #D2F3FC",
"A. c #DBF0FC",
"S. c #E3EFF6",
"D. c #E5F2F9",
"F. c #ECF7FD",
"G. c #EEF8FD",
"H. c #F0F9FE",
/* pixels */
"Z.Z.Z.Z.Z.Z.Z.Z.Z.Z.Z.Z.Z.Z.Z.Z.Z.Z.Z.Z.Z.Z.Z.Z.Z.Z.Z.Z.Z.Z.Z.Z.Z.Z.Z.Z.Z.Z.Z.Z.Z.Z.Z.Z.Z.Z.Z.Z.Z.Z.Z.Z.Z.Z.Z.Z.Z.Z.Z.Z.Z.Z.Z.Z.Z.Z.Z.Z.Z.Z.Z.Z.Z.Z.Z.Z.Z.Z.Z.Z.Z.Z.Z.",
"Z.Z.Z.Z.Z.Z.Z.Z.Z.Z.Z.Z.Z.Z.Z.Z.Z.B.Z.Z.Z.Z.Z.Z.Z.Z.Z.Z.Z.Z.Z.Z.Z.Z.Z.Z.Z.Z.Z.Z.Z.Z.Z.Z.Z.Z.Z.Z.Z.Z.Z.Z.Z.Z.Z.Z.Z.Z.Z.Z.Z.Z.Z.Z.Z.Z.Z.Z.Z.Z.Z.Z.Z.Z.Z.Z.Z.Z.Z.Z.Z.Z.Z.",
"Z.Z.Z.Z.Z.Z.Z.Z.Z.Z.Z.+.; = ; - - - , = - - = = > > > - - , ; > > - ; ; , ; ; , ; , , , , ; - ; : - ; - - = ; - > - ; X - - ; = = ; ; , = : > Z.Z.Z.Z.Z.Z.Z.Z.Z.Z.Z.Z.",
"Z.Z.Z.Z.Z.Z.Z.Z.Z.Z.Z.l - t - ; ; - = - - > > - > > t > - - ; ; ; ; ; - ; , ; > ; ; ; ; = = - ; - = - * = - ; > ; - = = ; - ; - = ; - - - ; - Z.Z.Z.Z.Z.Z.Z.Z.Z.Z.Z.Z.",
"Z.Z.Z.Z.Z.Z.Z.Z.Z.Z.Z.g ; - - - ; = = - ; = > , ; , > ; ; t ; ; ; > t > ; ; ; I M.j.: B.B.%.t ; > - ; ; = # , ; - - - ; ; $.$ - ; - - > ; - ; Z.Z.Z.Z.Z.Z.Z.Z.Z.Z.Z.Z.",
"Z.Z.Z.Z.Z.Z.Z.Z.Z.Z.Z.f - - ; ; - M.V.V.B.V.V.V.V.V.M.: > ; t ; ; > - i ; > , V.A.V.; V.B.V.> - ; - ; - U V.M.- - , - - V.B.V.- , ; ; : > - - Z.Z.Z.Z.Z.Z.Z.Z.Z.Z.Z.Z.",
"Z.Z.Z.Z.Z.Z.Z.Z.Z.Z.Z.: - ; ; - ; V.V.B.B.B.V.V.V.V.V.t ; ; - ; ; ; A.A.A.A.A.A.V.V.V.B.V.V.B.V.; ; - - 4.V.A.; * , v T A.A.A.j.h.v.@ - - > > Z.Z.Z.Z.Z.Z.Z.Z.Z.Z.Z.Z.",
"Z.Z.Z.Z.Z.Z.Z.Z.Z.Z.Z.G - t t ; , M.V.B.V.B.V.B.V.V.V.: > ; ; , - p B.B.A.A.A.V.V.V.V.V.V.B.V.V.> ; , ; j.V.A.; s V.B.V.V.B.V.A.A.A.V.- > - ; Z.Z.Z.Z.Z.Z.Z.Z.Z.Z.Z.Z.",
"Z.Z.Z.Z.Z.Z.Z.Z.Z.Z.Z.B - ; + > ; ; > > t : ; V.A.A.O : : ; > ; , A.A.A.B.k =.B.A.B.> u V.V.> > ; ; ; I B.A.V.G T t.V.V.V.A.V.V.A.A.H - - ; ; Z.Z.Z.Z.Z.Z.Z.Z.Z.Z.Z.Z.",
"Z.Z.Z.Z.Z.Z.Z.Z.Z.Z.Z.k ; - > > = ; ; M.B.B.V.V.B.4.- - - - , ; i.B.A.B., - V M.B.A.c k V.V.l g ; > g B.B.V.V.A.A.; - H > > - % - - : , > - - Z.Z.Z.Z.Z.Z.Z.Z.Z.Z.Z.Z.",
"Z.Z.Z.Z.Z.Z.Z.Z.Z.Z.Z.j = > > ; ; - > j.V.V.B.B.A.> ; - - - : - V.A.B.B.= B.V.V.V.V.A.V.V.V.A.A.- ; U B.V.V.B.A.V.; H V.V.= v.V.V.- > , ; - t Z.Z.Z.Z.Z.Z.Z.Z.Z.Z.Z.Z.",
"Z.Z.Z.Z.Z.Z.Z.Z.Z.Z.Z.s ; - > t ; t > - B.V.V.V.A.B.$.c ; - - @.B.A.B.V.- B.V.B.B.V.V.V.M.V.B.:.= ; ; ; B.B.V.B.@ p B.V.i.; M.B.Z.l.> , - > ; Z.Z.Z.Z.Z.Z.Z.Z.Z.Z.Z.Z.",
"Z.Z.Z.Z.Z.Z.Z.Z.Z.Z.Z.s > > ; - V.V.V.A.B.V.B.B.n.B.V.B.V.V.- V.A.B.A.V., A.A.% y c z v.@.$.$.T > ; ; ; B.V.B.B.y V.V.V.j.=   B.A.B.,.- , - ; Z.Z.Z.Z.Z.Z.Z.Z.Z.Z.Z.Z.",
"Z.Z.Z.Z.Z.Z.Z.Z.Z.Z.Z.s > ; - ; V.B.A.B.A.V.V.B.B.V.A.V.Z.B.- V.L T B.B., A.A.K V.V.V.V.A.V.V.V.; t ; & V.V.V.V.V.V.V.V.V.- B.V.,.B.- > ; > , Z.Z.Z.Z.Z.Z.Z.Z.Z.Z.Z.Z.",
"Z.Z.Z.Z.Z.Z.Z.Z.Z.Z.Z.p > ; t > j j.1.V.A.A.V.V.; > V.V.A.k > > - 4.V.A.% A.A.<.A.z i V.V.: A.V.t > ; A.V.V.V.V.V.- - B.V.V.B.B.u - = ; X ; ; Z.Z.Z.Z.Z.Z.Z.Z.Z.Z.Z.Z.",
"Z.Z.Z.Z.Z.Z.Z.Z.Z.Z.Z.t - ; > > > ; - > , V.B.V.t c V.V.A.> > - , t.A.V.t V.A.i.B.B.V.V.A.V.V.V.- , > B.B.V.V.c B.; ; r.V.V.V.%.> > - ; - - - Z.Z.Z.Z.Z.Z.Z.Z.Z.Z.Z.Z.",
"Z.Z.Z.Z.Z.Z.Z.Z.Z.Z.Z.: - - , ; ; > , > ; V.V.V.> V.V.V.- - ; > ; A.V.B.; V.B.t.V.v.1.B.B.R B.A.> > % B.7.m.V.4.- > t : V.V.V.2., > > , - - ; Z.Z.Z.Z.Z.Z.Z.Z.Z.Z.Z.Z.",
"Z.Z.Z.Z.Z.Z.Z.Z.Z.Z.Z.< ; : ; > > ; ; > > B.V.V.- - ; > - > - - = B.B.V.d V.B.j.B.i.Y A.V.&.A.B.; ; ; T > B.V.f - = c V.V.V.V.V.c , - , > - - Z.Z.Z.Z.Z.Z.Z.Z.Z.Z.Z.Z.",
"Z.Z.Z.Z.Z.Z.Z.Z.Z.Z.Z.k ; ; ; ; > ; ; V.V.B.B.V.; ; ; - - - ; ; ; V.V.B.a V.B.T V.V.B.B.B.B.A.A.% > ; > > r.V.% - V.V.V.V.% V.D.A.A.< , X - - Z.Z.Z.Z.Z.Z.Z.Z.Z.Z.Z.Z.",
"Z.Z.Z.Z.Z.Z.Z.Z.Z.Z.Z.p - = - , > ; - V.B.B.V.A.- > - - > - : > > j.V.B.T V.> Y V.J ; B.B.> A.B.- > > , > ] V.: o B.V.V.; ; t 2.Z.A.b.- > ; , Z.Z.Z.Z.Z.Z.Z.Z.Z.Z.Z.Z.",
"Z.Z.Z.Z.Z.Z.Z.Z.Z.Z.Z., = , > ; t ; - - ' B.$.> X * ; - - ; - ; = - = t - > - + L - = &.< > 9.&., , > , > t s - + + - = ; ; ; - > s - , , - ; Z.Z.Z.Z.Z.Z.Z.Z.Z.Z.Z.Z.",
"Z.Z.Z.Z.Z.Z.Z.Z.Z.Z.Z.s - - , ; + - - ; & ; - - * - - : = - ; - > - ; ; - > ; = ; - ; + - - ; t ; ; - > ; ; ; ; > t t > t t > t > , ; , , - - Z.Z.Z.Z.Z.Z.Z.Z.Z.Z.Z.Z.",
"Z.Z.Z.Z.Z.Z.Z.Z.Z.Z.Z.; > - . ; - X - - ; t > ; - - - > - - ; ; , - > ; ; - = ; ; t - - - - - - t ; = - = - ; > - > ; > = > - - - - > > , > > Z.Z.Z.Z.Z.Z.Z.Z.Z.Z.Z.Z.",
"Z.Z.Z.Z.Z.Z.Z.Z.Z.Z.Z.Z.p , : , > t = t ; = - y , - u , , s : : : - , t - t p , , i , - - i - - ; - ; : ; - t i t y - > t t > ; > > p > > - l Z.Z.Z.Z.Z.Z.Z.Z.Z.Z.Z.Z.",
"Z.Z.Z.Z.Z.Z.Z.Z.Z.Z.Z.Z.Z.Z.Z.Z.Z.=.3 1 3 3 Z.Z.Z.Z.Z.Z.Z.Z.Z.Z.Z.Z.Z.Z.Z.Z.Z.Z.Z.Z.Z.Z.Z.Z.Z.Z.Z.Z.Z.Z.Z.Z.Z.Z.n.Z.Z.Z.6 3 7 3 5 Z.Z.Z.Z.Z.Z.Z.Z.Z.Z.Z.Z.Z.Z.Z.Z.Z.Z.",
"Z.Z.Z.Z.Z.Z.Z.Z.Z.Z.Z.Z.Z.Z.Z.Z.Z.Z.3 7 7 3 Z.Z.Z.Z.Z.Z.Z.Z.Z.Z.Z.Z.Z.Z.Z.Z.Z.Z.Z.Z.Z.Z.Z.Z.Z.Z.Z.Z.Z.Z.Z.Z.Z.Z.Z.Z.Z.Z.9 7 6 7 6 Z.Z.Z.Z.Z.Z.Z.Z.Z.Z.Z.Z.Z.Z.Z.Z.Z.Z.",
"Z.Z.Z.Z.Z.Z.Z.Z.Z.Z.Z.Z.Z.Z.Z.Z.Z.Z.3 3 6 7 y.Z.Z.Z.Z.Z.Z.Z.Z.Z.Z.Z.Z.Z.Z.Z.Z.Z.Z.Z.Z.Z.Z.Z.Z.Z.Z.Z.Z.Z.Z.Z.Z.Z.Z.Z.Z.Z.8 8 5 1 5 Z.Z.Z.Z.Z.Z.Z.Z.Z.Z.Z.Z.Z.Z.Z.Z.Z.Z.",
"Z.Z.Z.Z.Z.Z.Z.Z.Z.Z.Z.Z.Z.Z.Z.Z.Z.5.7 2 8 5 9.Z.Z.Z.Z.Z.Z.Z.Z.Z.Z.Z.Z.Z.Z.Z.Z.Z.Z.Z.Z.Z.Z.Z.Z.Z.Z.Z.Z.Z.Z.Z.Z.Z.Z.Z.Z.Z.7 3 3 3 5 Z.Z.Z.Z.Z.Z.Z.Z.Z.Z.Z.Z.Z.Z.Z.Z.Z.Z.",
"Z.Z.Z.Z.Z.Z.Z.Z.*.O.X.O.O.*...O...X.X.X.X.X.O.X.O.O...O.X.O.O.O.*.[ ..O.O...X...O.....X. .......O.O... ...O.O.O...O.X.O. . ... .| ......X. .O.X.O.X.Z.Z.Z.Z.Z.Z.Z.Z.Z.",
"Z.Z.Z.Z.Z.Z.Z.Z.*.O...*.....X.O.X.| O. .-.O.X. .O.X... ..... .O.*. .X...X.X.O.[ ....O.O.[ O.o.O.O.O.O. .X.O.O.O... .O...X.....X...X.X.X...X.O.O.O.O.v.Z.Z.Z.Z.Z.Z.Z.Z.",
"Z.Z.Z.Z.Z.Z.Z.Z.O.*.| ......O.O.X. . .X.X.O.O.|  ..... . .X...O.O.O. .{ O.O.O.*...O.O. . .| ....O.X.X.O.| O...O..... ...O.O.X. . ...o.X...X.O.O.X.X.l.Z.Z.Z.Z.Z.Z.Z.Z.",
"Z.Z.Z.Z.Z.Z.Z.Z.O.X.X.X.O.X.X...X.X. ... .X.O.-.X.O. .....X.| O...O.*.X.X.O.X. ...O.O.O. .O.O. .O.O.X.X...X.O. ...O.O.X...O... .....O.X.....O.O.X.O.b.Z.Z.Z.Z.Z.Z.Z.Z.",
"Z.Z.Z.Z.Z.Z.Z.Z...*. .X.O.X.X.O.O.o.O.o.*.....X......... .O...O.X.O.o.........X...O.....o...O...O.........O.o...O.o.O. ... .O.o.O.....X....... ...O.b.Z.Z.Z.Z.Z.Z.Z.Z.",
"Z.Z.Z.Z.Z.Z.Z.Z...O.......*.O.O.O.O.O.*...O.*... ...O...X.O...X.O. . .o. .....O.*.O.O...O.O.{ o...O. .......O... ...O... ...X.o.....O.X... .....O.O.Z.Z.Z.Z.Z.Z.Z.Z.Z.",
"Z.Z.Z.Z.Z.Z.Z.Z.*.*...X.*...O.` Q n r ! Q 6 ` W 4  .O.O.X.W ~ Z b ~ 6 / 7 E 0 *.O.O.O./ 6 6 ` ~ r r Q ` 5 O.O...o.Z Z m ^ S r r ..Z 7 ...... ...O.O.8.Z.Z.Z.Z.Z.Z.Z.Z.",
"Z.Z.Z.Z.Z.Z.Z.Z.O.O.X...*...O.7 G.G.F.F.F.F.F.F.5 X.O.X.*.0 F.F.F.F.G.F.F.F.q O.O.....6 F.F.F.F.F.F.F.F.6  . . .O.6 F.F.F.G.G.G.F.F.0 [ X.O. .X.O.O.b.Z.Z.Z.Z.Z.Z.Z.Z.",
"Z.Z.Z.Z.Z.Z.Z.Z.*.O.O...O.O.*.q G.G.G.F.F.F.F.F.q O.O.O.O.0 F.F.F.G.F.F.F.H.6 O.O.....q F.F.F.F.F.F.F.F.7 o.O.....0 F.F.F.F.F.F.H.F.r o.....X.O.O.O.b.Z.Z.Z.Z.Z.Z.Z.Z.",
"Z.Z.Z.Z.Z.Z.Z.Z.O.O...o.O.X.O.9 F.F.F.G.F.F.F.F.6 O...*...w F.F.G.D.F.F.G.F.q ......O.0 F.F.F.F.F.F.F.F.6 ..O.o.X.w F.F.F.F.F.F.D.F.5  .O...O.o.O. .l.Z.Z.Z.Z.Z.Z.Z.Z.",
"Z.Z.Z.Z.Z.Z.Z.Z.O.O...O.X.O.O.w F.F.F.G.F.F.F.F.0 *.X.O.O.0 G.F.G.F.F.F.F.G.0 ........0 F.F.F.F.F.F.F.G.6 .... ...0 F.F.D.F.F.F.F.d.7  .....O.[ ....z.Z.Z.Z.Z.Z.Z.Z.Z.",
"Z.Z.Z.Z.Z.Z.Z.Z. .O...O.O.O.O.0 F.F.F.F.F.F.F.F.9 X.O.X.O.b F.F.F.F.F.F.F.G.7 o..... .q F.F.F.F.F.F.F.F.0 ........6 G.F.F.F.F.b.d.d.r O.O...O... ...h.Z.Z.Z.Z.Z.Z.Z.Z.",
"Z.Z.Z.Z.Z.Z.Z.Z.O.O.X.X.O.O.X.0 F.G.F.F.F.F.G.G.9 X.O.O.*.w F.F.G.F.F.F.F.F.w X...X...5 F.F.F.F.F.F.F.F.r  .o.X.X.r F.F.F.G.s.s.d.d.q O.O.O.O.O. ...z.Z.Z.Z.Z.Z.Z.Z.Z.",
"Z.Z.Z.Z.Z.Z.Z.Z.O.X.X.X.X.O.X.7 F.F.F.F.F.F.G.F.0 ..O.O.*.6 F.F.G.F.G.F.F.F.w  .X.X.| 0 F.F.F.F.F.F.F.F.9 .... .O.0 F.G.D.a.d.s.d.s.q o...O.O. .....h.Z.Z.Z.Z.Z.Z.Z.Z.",
"Z.Z.Z.Z.Z.Z.Z.Z.X.X... .X.X...8 F.F.F.F.G.G.F.F.6 *.*.O.O.r G.F.F.F.F.F.F.F.0 ....O.X.0 F.F.F.F.F.F.F.F.0  . .*.O.0 F.M.d.f.p.d.f.d.r ..o.[ .. ...O.z.Z.Z.Z.Z.Z.Z.Z.Z.",
"Z.Z.Z.Z.Z.Z.Z.Z. . .X. . . ...[ 0 q r q 9 w 0 w b O.O.*.X...q 6 q 0 q w 0 0 ~ O...O.O.[ 6 0 9 0 9 0 q q r X.*.*.O...w 9 w 6 6 0 8 0 r O.O.O..... ...z.Z.Z.Z.Z.Z.Z.Z.Z.",
"Z.Z.Z.Z.Z.Z.Z.Z.X... .X.X.X.X.....X.X.-.-.O.X.O.X.O.X.*.*.*.O.....O.O.X.O.O.X. .o.O.O...O.O.*.O...*.O. .X...*.O.O.X.O.*.*.*.*.O.....X.X...O...O...X.z.Z.Z.Z.Z.Z.Z.Z.Z.",
"Z.Z.Z.Z.Z.Z.Z.Z.X. .O.X.X.O.O...X.X.-.-.X.X.O...O.*.o.O...O.O.O...X.X.X.X.O.X.O.O.O.O.O.O... .O.X...X.*.X.*.X.O.O.O...*...*.*. . . ... . .o...O.O...Z.Z.Z.Z.Z.Z.Z.Z.Z.",
"Z.Z.Z.Z.Z.Z.Z.Z...X... .....X...O.O.X.X.O.X.X.O. .X.O.X. ...O.X.X.O.O.O.O.O.X. .O.O.....O...X.O.*.X.O.*...X.*.*...X.O.X.*.O.O...O.......O... .O.....0.Z.Z.Z.Z.Z.Z.Z.Z.",
"Z.Z.Z.Z.Z.Z.Z.Z.X.O... .X. .X... .O.-.O.O...X.X.O...[ o. .[ ..X.X.O. . . .O... ..... ...O.X.*...O.O...X.*.*.O.X.O.*.*.O.X.....X.O...O...O...O.O. .O.b.Z.Z.Z.Z.Z.Z.Z.Z.",
"Z.Z.Z.Z.Z.Z.Z.Z.X...X.O.*...O.O. .X.O.O.X.X.O.O...O.X.X...X...O.X. .X. ...O... .......X. .X.X.*.X.*...X.*.O.O...O.X.O.....O.O.O.O.O.O.O...O.O.O. .O.9.Z.Z.Z.Z.Z.Z.Z.Z.",
"Z.Z.Z.Z.Z.Z.Z.Z. .....X.O.O.O.X.r n 7 / w Q M 9 *. ...O. . .M 9 m r ! b Q M [ ..*.X...O.0 n w w _ ! b M _ X.X.O.O.O.r Z Z r n W S C O.;.O.O. .O.o.O.Z.Z.Z.Z.Z.Z.Z.Z.Z.",
"Z.Z.Z.Z.Z.Z.Z.Z...o...*.O. .X.Z k.G.G.G.x.F.F.F.0 O.......9 S.F.F.F.F.F.F.F.0 O.......r F.F.F.B.f.s.s.d.r O.*.O...r s.f.d.d.d.f.f.d.0 O.O.O. .O.O.O.z.Z.Z.Z.Z.Z.Z.Z.Z.",
"Z.Z.Z.Z.Z.Z.Z.Z.O.O.O.X.......6 F.F.G.F.F.F.F.F.0  ...X...0 F.F.F.F.F.F.F.F.6 .. .....w F.F.s.d.f.s.s.s.0 O...O...7 s.a.d.d.d.f.f.f.r O.O.O...O.O.O.z.Z.Z.Z.Z.Z.Z.Z.Z.",
"Z.Z.Z.Z.Z.Z.Z.Z.X.O.O.*...O...0 F.G.F.F.F.F.F.D.6 X. ...O.q F.F.F.F.F.F.F.F.0  ...X.O.9 s.f.f.f.d.s.s.d.r *. .| ..6 a.s.d.d.a.a.s.d.6 O.X.O.| ......>.Z.Z.Z.Z.Z.Z.Z.Z.",
"Z.Z.Z.Z.Z.Z.Z.Z...-.O.O.*.X.X.0 F.F.F.F.F.F.F.F.0 O.O.O.O.0 F.F.F.F.F.F.F.F.4 ..X.X.-.0 s.a.s.s.s.f.s.s.r O.O...o.6 d.d.a.d.s.a.d.d.6 O.O.....o...X.b.Z.Z.Z.Z.Z.Z.Z.Z.",
"Z.Z.Z.Z.Z.Z.Z.Z.O...*.O.*.O.O.q F.F.G.F.F.D.F.F.9 O...O...0 F.F.F.F.F.F.F.F.4 O.X...O.Q d.s.d.d.s.s.s.s.q .... ...0 a.d.s.d.s.s.s.d.w O.O. .o.o.O.O.v.Z.Z.Z.Z.Z.Z.Z.Z.",
"Z.Z.Z.Z.Z.Z.Z.Z.O...O.X.*.....q F.F.F.F.F.F.F.F.6 X. .O.{ 9 F.F.F.F.F.F.F.F.0 *.| ..O.w s.d.s.d.s.s.s.s.6 O.......0 s.a.d.d.s.a.d.d.0 X.O.X.o.O.O.O.b.Z.Z.Z.Z.Z.Z.Z.Z.",
"Z.Z.Z.Z.Z.Z.Z.Z.X.O.O.X.*.O.O.7 F.F.F.F.F.F.F.F.6 O.O.O...7 F.G.F.F.F.F.F.F.0 ....X.*.0 a.s.s.s.s.s.s.a.6 O.......6 s.s.s.d.a.s.d.f.w O.O.O.O.O...X.l.Z.Z.Z.Z.Z.Z.Z.Z.",
"Z.Z.Z.Z.Z.Z.Z.Z.O.O.O.-.O.-.*.6 F.F.F.F.F.G.F.F.9 .. .| O.8 G.F.F.F.F.F.F.s.r X.*.....0 s.s.a.s.d.a.d.s.6  ...O.O.9 s.f.a.a.a.d.d.f.0 ..O.O.o.O.....6.Z.Z.Z.Z.Z.Z.Z.Z.",
"Z.Z.Z.Z.Z.Z.Z.Z.O.O.-.O.X...O.q F.g.F.F.h.k.x.N.q X...X. .r D.H.x.F.F.7.d.u.q ..O.O...r 3.d.3.d.3.,.s.d.0 o...O.O.m w.s.a.e.d.d.f.u.w O.O.O.O.O.X.X.n.Z.Z.Z.Z.Z.Z.Z.Z.",
"Z.Z.Z.Z.Z.Z.Z.Z.-.O.*.O.O...X.X.M Z m ) ..Q ! E  .O. ...O.X.Z m / w [ ) ~ n ..O... .O.X.S ` N w / C ! _ O.O.O.O...../ ! Z W e r r w  .O.O.O.O.O.....Z.Z.Z.Z.Z.Z.Z.Z.Z.",
"Z.Z.Z.Z.Z.Z.Z.Z.O...O.O...O.X.O.O.X. . . .X...X.X.O.X.X.O. .X...X... .O. .X. .O.X. .X. .X... ... ...X.O.O.O.*.O.*.....O.O...o...X.X. .O.X. .X.X. . .b.Z.Z.Z.Z.Z.Z.Z.Z.",
"Z.Z.Z.Z.Z.Z.Z.Z.O.....o...O...O.O.X... .X.O.X.| ..O.X. ...O. .X.O.O...O.....O.X. ...O.*..... .X.X.O.X. .O.O...*.O...O. .O...o.{ O.O.O.O.O...X.O.X.O.b.Z.Z.Z.Z.Z.Z.Z.Z.",
"Z.Z.Z.Z.Z.Z.Z.Z.O.o.O. . .O.O... . ...O..... .X...X.O.O.O.X.O.O.O.....O.O.O.X.O.o.*.O.O.....X.X. .o...X.O.O.O.O.O...O.O.O.....O.O.O.O...X.O.O...O...z.Z.Z.Z.Z.Z.Z.Z.Z.",
"Z.Z.Z.Z.Z.Z.Z.Z...O... .O.O.O. .X... .X.O.X.X.X.O.O.O.X...O.O.O...O.O... .X.O.O.X...X.X...O.O.O.O.X.*.X.o.....O.X.........O.O.O.X.O.O.X. .X.X...O.O.b.Z.Z.Z.Z.Z.Z.Z.Z.",
"Z.Z.Z.Z.Z.Z.Z.Z.X.....X.[ ..X.X.X. .O.X.*.*.X.X.O.X.X.*.O...O.O.....O.| X.......O.O.O.O.*.X.O.....X.X.....O.X.....X.X.X.O.O...O... .X...O... .o.O.O.l.Z.Z.Z.Z.Z.Z.Z.Z.",
"Z.Z.Z.Z.Z.Z.Z.Z.X.O. .X.X...X._ 0 6 9 9 0 0 4 6 r O.X.X...| q 9 9 q 9 9 5 0 0  .O...O...q 0 0 9 9 6 9 6 E X.X...O.` q 9 6 7 0 0 0 7 q .. .O.-.O.O.O.n.Z.Z.Z.Z.Z.Z.Z.Z.",
"Z.Z.Z.Z.Z.Z.Z.Z. .O.O.....X.O.q F.F.F.F.F.F.F.c.0 O.O.X.O.0 s.s.s.s.s.s.s.s.0 ..O.O...m s.d.f.s.s.s.a.a.0 ....-.*.q s.d.d.s.s.s.s.s.6 .. ..... ...O.v.Z.Z.Z.Z.Z.Z.Z.Z.",
"Z.Z.Z.Z.Z.Z.Z.Z.O.O.O. ... .O.w F.F.F.F.F.F.s.s.9 O.*.O.O.m s.s.d.s.a.s.s.d.9 ..X.....r f.s.s.f.s.s.s.s.q ......O.7 a.s.d.d.d.f.s.s.0 O... .O...O.O.n.Z.Z.Z.Z.Z.Z.Z.Z.",
"Z.Z.Z.Z.Z.Z.Z.Z.....X.....*.O.0 F.F.G.F.s.s.f.s.4 O...X.X.9 s.s.d.d.f.s.d.d.0 X...*.O.0 s.s.s.s.f.f.f.s.9 O.*.X.O.0 f.f.s.a.d.d.a.f.0 ..O... .X.O.O.>.Z.Z.Z.Z.Z.Z.Z.Z.",
"Z.Z.Z.Z.Z.Z.Z.Z.O...O.O.O.O.O.0 F.F.G.f.s.s.s.s.7 X.X.X.*.0 s.s.d.s.s.s.s.a.6 O..... .w s.f.f.f.s.s.s.s.6 -.O.O.O.0 f.d.d.s.d.s.s.s.q O...X.O.O.O.O.0.Z.Z.Z.Z.Z.Z.Z.Z.",
"Z.Z.Z.Z.Z.Z.Z.Z...O.O.O. .O.O.n G.b.s.s.f.s.s.s.0 O.X...X.0 f.f.d.s.s.d.d.d.0 .. .O.O.m s.s.s.s.f.f.a.s.0 O.O.O.O.0 d.d.d.d.d.d.s.s.7 O.O.O.O.-.O...b.Z.Z.Z.Z.Z.Z.Z.Z.",
"Z.Z.Z.Z.Z.Z.Z.Z... ...o...O.O.0 f.f.s.f.f.f.s.s.5 ..X.O.O.7 s.f.s.s.s.s.d.s.9 O.*...O.b f.f.f.f.s.s.s.a.0 O.O.O.O.q d.d.d.d.d.a.s.a.0 O...O.O.O.O.O.h.Z.Z.Z.Z.Z.Z.Z.Z.",
"Z.Z.Z.Z.Z.Z.Z.Z.O.O.O.....X.O.w d.d.f.f.s.d.s.s.9 X...O. .q s.p.s.a.a.s.s.s.6 *.O.....r f.d.a.s.s.f.s.s.w X.O.X.O.0 s.s.s.d.a.a.d.s.0 ..X...O.O.O.O.b.Z.Z.Z.Z.Z.Z.Z.Z.",
"Z.Z.Z.Z.Z.Z.Z.Z.O.O.O.o.O.O...q d.d.d.s.s.s.s.s.0 *.....*.0 f.s.d.s.a.s.s.d.9 .. .....0 s.d.s.s.f.f.s.s.9 X.O.-.O.0 d.f.d.d.d.d.s.s.6 X.X.O.O.X.....Z.Z.Z.Z.Z.Z.Z.Z.Z.",
"Z.Z.Z.Z.Z.Z.Z.Z.O.O.O.O.O.X.O.r 7 q C w 7 9 r N 0 X.O.O...S 0 e N 6 N 6 6 r q ....O.X._ 9 6 e 9 F 0 0 6 7 ..X...O.Z w C q N N 3 D q 0 O.O.O.-.O.X.X.Z.Z.Z.Z.Z.Z.Z.Z.Z.",
"Z.Z.Z.Z.Z.Z.Z.Z.O.O.O.O...O.....O.O.O.X.X...O.X.X.*.X.......O. .X.O.o.*.X.O.O...X...O.*. .| X.O.O.O.X. ...O.X.-.O.O.X.O.....X...O.O.O.O.O.O.*.O.O.O.j.Z.Z.Z.Z.Z.Z.Z.Z.",
"Z.Z.Z.Z.Z.Z.Z.Z.O.-.o.O.O.O.O...O......... .X...X.X.O.| X. ...X...X.O.X.O.O... .X...O.X...*.O...O.X.*.X.X...X.X...O.O.O...O.o...O.O.O...X.O.O. ...O.l.Z.Z.Z.Z.Z.Z.Z.Z.",
"Z.Z.Z.Z.Z.Z.Z.Z.O.O.O.o.O.o.O.....O.O...O.X. .X.O.X.O.X...O.O...X.O.*...O.*.X.O.O.O...O.X.......*. .X.O.X.X.O.*.....O......... . .X.X.O.O.O.X. .X...n.Z.Z.Z.Z.Z.Z.Z.Z.",
"Z.Z.Z.Z.Z.Z.Z.Z.o.O.O.O...o.*.O...O.O.O...O..... .O.X...O.O...o...O.[ { *.*.*.O.O.| X...O. .O.[  .[ X...X...*.X.O.O.X.X.O...O.O.....X. .O.O...O.O...z.Z.Z.Z.Z.Z.Z.Z.Z.",
"Z.Z.Z.Z.Z.Z.Z.Z. .-.O.O.O.*. .O...X.O...X.O. ...O...f - - - t > t ; > > > t ; > ; - - - > > - = ; > ; ; ; = ; ; ....O.O.*.X.........X.O.X.O.| X.....M.Z.Z.Z.Z.Z.Z.Z.Z.",
"Z.Z.Z.Z.Z.Z.Z.Z.O...X.X.O...O.O...X.O...O.....X...O.h ; ; - ; - ; - ; , , ; , - > ; ; ; ; : ; ; - > - - ; - - - ..O...O.O.X.O.O...O..... . ..... .O.z.Z.Z.Z.Z.Z.Z.Z.Z.",
"Z.Z.Z.Z.Z.Z.Z.Z.O.O. ..... .O.....O..... . ...O.O.O.P > - - - = > = - - = ; , ; , ; ; ; , ; ; > ; > t - ; > - -  ...O...O.X.....O...O.O.X.....O.X.X.l.Z.Z.Z.Z.Z.Z.Z.Z.",
"Z.Z.Z.Z.Z.Z.Z.Z.O... .....X.O.......O.O...O...*.O.X.x > > t ; , , > > ; ; ; - , , > ; - ; = ; t ; > - > > - - - X.O.O.O.o.O.O.-.O.O...O.O...O... ...Z.Z.Z.Z.Z.Z.Z.Z.Z.",
"Z.Z.Z.Z.Z.Z.Z.Z.O.O.X.X.O.....O. ... .O.O...X.O.O.O.A > ; , ; t , , ; : t ; > > t , - - - - - - > > t ; ; t > - O.X.O.O.X. ...O...O.X.O.O.O.O.X.O.X.n.Z.Z.Z.Z.Z.Z.Z.Z.",
"Z.Z.Z.Z.Z.Z.Z.Z.O.O... .O.........[  ...O. .X.*.-.O.X.0 D.F.D.G.F.G.F.F.x.D.D.F.F.O.F.F.F.G.S.D.a.f.e.a.q.q.s.W ......O.X.O.O...O.O.X.O.O.O.O.O.X.O.Z.Z.Z.Z.Z.Z.Z.Z.Z.",
"Z.Z.Z.Z.Z.Z.Z.Z.X.O.X.O.O.O.O.O.*..... .O.X.O.O.O.O.O.9 F.F.G.G.F.F.F.F.F.G.G.F.G.O.F.F.H.f.f.s.s.f.s.s.a.a.s.! ..*.X.X.X.X...O.X. . . .O.O.O.O... .Z.Z.Z.Z.Z.Z.Z.Z.Z.",
"Z.Z.Z.Z.Z.Z.Z.Z.....O. ...O.......O... .....O.O.X.X.O.6 F.F.F.F.F.F.F.F.F.F.F.F.G.;.F.f.d.s.d.s.s.s.s.f.d.s.s.S *.......*.O... .O...O...O.X.O.O. .X.z.Z.Z.Z.Z.Z.Z.Z.Z.",
"Z.Z.Z.Z.Z.Z.Z.Z.X...O.O.X. . .........| X.X.O.O.O.O.X.7 F.G.F.G.F.F.G.F.F.F.F.G.v.#.d.d.s.s.s.s.s.f.s.f.s.d.3.Z O.O.O.X.O.X.O.O...O.O.O.O.O.O.O.O.X.h.Z.Z.Z.Z.Z.Z.Z.Z.",
"Z.Z.Z.Z.Z.Z.Z.Z...O...X..... ... . . ...O...X...-.X.O.9 F.G.F.H.F.F.F.F.F.F.f.s.a.' d.a.a.d.d.d.f.f.s.s.d.s.u.Z O.-.O. .O.....X.....X.X.O.O.O.O.O.O.h.Z.Z.Z.Z.Z.Z.Z.Z.",
"Z.Z.Z.Z.Z.Z.Z.Z...O.O.O.X...X.O. .O. ...O.O.....O.O...8 F.F.F.F.F.F.F.D.s.a.s.d.d.( d.d.a.s.d.d.s.s.s.s.s.d.s.` .. ...X.O.O...O.X.O.X.X... ...X.X.X.v.Z.Z.Z.Z.Z.Z.Z.Z.",
"Z.Z.Z.Z.Z.Z.Z.Z.o.O.O.O.O.O.O.O.o... ...O.......O.O.O.0 F.F.F.F.F.b.s.s.s.a.p.a.d.' s.a.d.a.d.a.a.s.s.s.f.s.u.~ O.X.X.X.X.X.O.O.X. .....O...X. .X.O.b.Z.Z.Z.Z.Z.Z.Z.Z.",
"Z.Z.Z.Z.Z.Z.Z.Z...O.....O. .O.X.X. .O.O.O.O.O...X.O.X.r F.F.F.f.d.d.s.s.s.d.d.s.f.] a.d.d.a.d.d.s.s.s.s.s.s.s.) O.X.X.X.X...O.O.O...O...O. ... ...X.b.Z.Z.Z.Z.Z.Z.Z.Z.",
"Z.Z.Z.Z.Z.Z.Z.Z. . .O.X.......O.O.O.....O... .....o...0 b.d.s.s.d.d.d.s.f.s.s.d.d.3.a.s.a.d.d.d.s.s.s.s.s.s.w.M O.X.O.X.X. .....O.O.O.O.....O.O.O.O.z.Z.Z.Z.Z.Z.Z.Z.Z.",
"Z.Z.Z.Z.Z.Z.Z.Z...O.O.o.O.O...O.O.O. .` O. . .....o...6 s.s.s.s.d.a.d.d.a.d.s.d.f.#.a.s.d.d.d.d.s.s.s.s.s.f.s.E X.O.O.X.X.X...X.X.O.O.O.....X.O.O.O.Z.Z.Z.Z.Z.Z.Z.Z.Z.",
"Z.Z.Z.Z.Z.Z.Z.Z.O..... .o.O.O. .O.O.O..... .O...O.....0 s.d.s.f.s.s.s.d.s.s.d.s.a.} s.s.a.a.s.s.d.s.s.s.s.s.s.E X.X.O.X.O.O.O.X.O.O.X.O.O.O.O.O.O.O.Z.Z.Z.Z.Z.Z.Z.Z.Z.",
"Z.Z.Z.Z.Z.Z.Z.Z.Z.Z.Z.Z.Z.Z.Z.Z.Z.n.Z.Z.Z.Z.n.Z.Z.Z.Z.Z.Z.Z.C.A.Z.Z.Z.Z.Z.Z.Z.C.Z.b.Z.Z.C.Z.A.Z.Z.Z.Z.Z.Z.Z.Z.n.Z.Z.Z.Z.z.Z.Z.Z.Z.Z.b.Z.Z.Z.Z.Z.Z.b.Z.Z.Z.Z.Z.Z.Z.Z.Z.",
"Z.Z.Z.Z.Z.Z.Z.Z.Z.Z.Z.Z.Z.Z.Z.Z.Z.Z.Z.Z.Z.Z.Z.Z.Z.Z.Z.Z.Z.Z.Z.Z.Z.Z.Z.Z.Z.Z.Z.Z.Z.Z.Z.Z.Z.Z.Z.Z.Z.Z.Z.Z.Z.Z.Z.Z.Z.Z.Z.Z.Z.Z.Z.Z.Z.Z.Z.Z.Z.Z.Z.Z.Z.Z.Z.Z.Z.Z.Z.Z.Z.Z.Z.",
"Z.Z.Z.Z.Z.Z.Z.Z.Z.Z.Z.Z.Z.Z.Z.Z.Z.Z.Z.Z.Z.Z.Z.Z.Z.Z.Z.Z.Z.Z.Z.Z.Z.Z.Z.Z.Z.Z.Z.Z.Z.Z.Z.Z.Z.Z.Z.Z.Z.Z.Z.Z.Z.Z.Z.Z.Z.Z.Z.Z.Z.Z.Z.Z.Z.Z.Z.Z.Z.Z.Z.Z.Z.Z.Z.Z.Z.Z.Z.Z.Z.Z.Z.",
"Z.Z.Z.Z.Z.Z.Z.Z.Z.Z.Z.Z.Z.Z.Z.Z.Z.Z.Z.Z.Z.Z.Z.Z.Z.Z.Z.Z.Z.Z.Z.Z.Z.Z.Z.Z.Z.Z.Z.Z.Z.Z.Z.Z.Z.Z.Z.Z.Z.Z.Z.Z.Z.Z.Z.Z.Z.Z.Z.Z.Z.Z.Z.Z.Z.Z.Z.Z.Z.Z.Z.Z.Z.Z.Z.Z.Z.Z.Z.Z.Z.Z.Z.",
"Z.Z.Z.Z.Z.Z.Z.Z.Z.Z.Z.Z.Z.Z.Z.Z.Z.Z.Z.Z.Z.Z.Z.Z.Z.Z.Z.Z.Z.Z.Z.Z.Z.Z.Z.Z.Z.Z.Z.Z.Z.Z.Z.Z.Z.Z.Z.Z.Z.Z.Z.Z.Z.Z.Z.Z.Z.Z.Z.Z.Z.Z.Z.Z.Z.Z.Z.Z.Z.Z.Z.Z.Z.Z.Z.Z.Z.Z.Z.Z.Z.Z.Z."
};
