/* XPM */
static char *_03_yukidaruma_family_100_63[] = {
/* columns rows colors chars-per-pixel */
"100 63 164 2 ",
"   c black",
".  c #0E0E0E",
"X  c #191919",
"o  c #3C3C3C",
"O  c #102D43",
"+  c #6C6C6C",
"@  c #DB5600",
"#  c #E55A00",
"$  c #E85D00",
"%  c #E75700",
"&  c #E96000",
"*  c #E37E00",
"=  c #E76E17",
"-  c #EC731E",
";  c #D22F51",
":  c #D53355",
">  c #D63659",
",  c #D8375C",
"<  c #D8395D",
"1  c #D6395E",
"2  c #D84060",
"3  c #DE5166",
"4  c #DF5572",
"5  c #E0556A",
"6  c #E0566A",
"7  c #E15D79",
"8  c #E26678",
"9  c #369C2C",
"0  c #399E2E",
"q  c #319F23",
"w  c #3A9F30",
"e  c #3BA02F",
"r  c #3CA231",
"t  c #6FB11E",
"y  c #73B51E",
"u  c #44A22B",
"i  c #4BA529",
"p  c #4BA92F",
"a  c #54AA2A",
"s  c #59AD2A",
"d  c #56A926",
"f  c #5BB02E",
"g  c #41A534",
"h  c #4BA93F",
"j  c #5AAA36",
"k  c #65AF23",
"l  c #6BB224",
"z  c #62B12B",
"x  c #64B228",
"c  c #75B622",
"v  c #77B823",
"b  c #7ABA24",
"n  c #77B92C",
"m  c #60AF33",
"M  c #68B430",
"N  c #7FBB31",
"B  c #52A948",
"V  c #5DB354",
"C  c #6DB743",
"Z  c #6CB863",
"A  c #6AAD68",
"S  c #81BD27",
"D  c #E48200",
"F  c #EF8D00",
"G  c #E78405",
"H  c #F08D00",
"J  c #EF9305",
"K  c #F19200",
"L  c #E7952E",
"P  c #F29B27",
"I  c #84BA46",
"U  c #83B560",
"Y  c #EDB059",
"T  c #EEA26D",
"R  c #EDB167",
"E  c #91C64A",
"W  c #A4CF6A",
"Q  c #006EBE",
"!  c #006FC0",
"~  c #0074C2",
"^  c #0179C6",
"/  c #0E7AC3",
"(  c #0579C4",
")  c #E56782",
"_  c #E9758D",
"`  c #E6768A",
"'  c #EB7C93",
"]  c #1D87CB",
"[  c #2F89CC",
"{  c #74B3DF",
"}  c #85B38B",
"|  c #A7BE9E",
" . c #A9A8A9",
".. c #B4B4B4",
"X. c #EB8096",
"o. c #ED8299",
"O. c #E7879A",
"+. c #E9919D",
"@. c #F3B68A",
"#. c #EF9BAE",
"$. c #ECA4B5",
"%. c #F0B0B9",
"&. c #A3C089",
"*. c #BCDC91",
"=. c #AAC49B",
"-. c #AAC0A4",
";. c #B6C4BD",
":. c #B4C5B5",
">. c #F8CB86",
",. c #F7CBB5",
"<. c #C1E1B6",
"1. c #D6E9BA",
"2. c #92B5CB",
"3. c #B6BFC8",
"4. c #EEBAC3",
"5. c #F0B4C2",
"6. c #B6C3C5",
"7. c #B7C0C9",
"8. c #BCC5CD",
"9. c #BFC8CF",
"0. c #B8C5C6",
"q. c #8EC2E4",
"w. c #B0D0EA",
"e. c #A5CAE7",
"r. c #C0C8CF",
"t. c #C6C8CB",
"y. c #C2CAD1",
"u. c #C9CFD5",
"i. c #CDD3D9",
"p. c #D4DADF",
"a. c #D5D7D9",
"s. c #F3C4CD",
"d. c #F8D5C0",
"f. c #F9D8C1",
"g. c #F2C7D0",
"h. c #D9ECCC",
"j. c #DDEEDB",
"k. c #D8EAD7",
"l. c #E1EECD",
"z. c #FBE9D6",
"x. c #E7F2D8",
"c. c #D9DEE2",
"v. c #F8DCE1",
"b. c #DEE3E6",
"n. c #D9EAF6",
"m. c #E1E3E5",
"M. c #E5E8EB",
"N. c #EBECED",
"B. c #E3E7EA",
"V. c #FCEEE4",
"C. c #FEE9EF",
"Z. c #E7F3E5",
"A. c #ECEEF1",
"S. c #FFECF2",
"D. c #EEF0F2",
"F. c #F3F4F5",
"G. c #FFF2F6",
"H. c #F7FAF3",
"J. c #F5F7F8",
"K. c #FFF6F9",
"L. c #F5F8FA",
"P. c #FFFFFF",
"I. c #FEF9F2",
"U. c None",
/* pixels */
"U.U.U.U.U.U.U.U.U.U.U.U.U.U.U.U.U.U.U.U.U.U.U.U.U.U.U.U.U.U.U.U.U.U.U.U.U.U.U.U.U.U.U.U.U.U.U.U.U.U.U.U.U.U.U.U.U.U.U.U.U.U.U.U.U.U.U.U.U.U.U.U.U.U.U.U.U.U.U.U.U.U.U.U.U.U.U.U.U.U.U.U.U.U.U.U.U.U.U.U.",
"U.U.U.U.U.U.U.U.U.U.U.U.U.U.U.U.U.U.U.U.U.U.U.U.U.U.U.U.U.U.U.U.U.U.U.U.U.U.U.U.U.U.U.U.U.U.U.U.U.U.U.U.U.U.U.U.U.U.U.U.U.U.U.U.U.U.U.U.U.U.U.U.U.U.U.U.U.U.U.U.U.U.U.U.U.U.U.U.U.U.U.U.U.U.U.U.U.U.U.U.",
"U.U.U.U.U.U.U.U.U.U.U.U.U.U.U.U.U.U.U.U.U.U.U.U.U.U.U.U.U.U.U.U.U.U.U.U.U.U.U.U.U.U.U.U.U.U.U.U.U.U.U.U.U.U.U.U.U.U.U.U.U.U.U.U.U.U.U.U.U.U.U.U.U.U.U.U.U.U.U.U.U.U.U.U.U.U.U.U.U.U.U.U.U.U.U.U.U.U.U.U.",
"U.U.U.U.U.U.U.U.U.U.U.U.U.U.U.U.U.U.U.U.U.U.U.U.U.U.U.U.U.U.U.U.U.U.U.U.U.U.U.U.U.U.U.U.U.U.U.U.U.U.U.U.U.U.U.U.U.U.U.U.U.U.U.U.U.U.U.U.U.U.U.U.U.U.U.U.U.U.U.U.U.U.U.U.U.U.U.U.U.U.U.U.U.U.U.U.U.U.U.U.",
"U.U.U.U.U.U.U.U.U.U.U.U.U.U.U.U.U.U.U.U.U.U.U.U.U.U.U.U.U.U.U.U.U.U.U.U.U.U.U.U.U.U.U.U.U.U.U.U.U.U.U.U.U.U.U.U.U.U.U.U.U.U.U.U.U.U.U.U.U.U.U.U.U.U.U.U.U.U.U.U.U.U.U.U.U.U.U.U.U.U.U.U.U.U.U.U.U.U.U.U.",
"U.U.U.U.U.U.U.U.U.U.U.U.U.U.U.U.U.U.U.U.U.U.U.U.U.U.U.U.U.U.U.U.U.U.U.U.U.U.U.U.U.U.U.U.U.U.U.U.U.U.U.U.U.U.U.U.U.U.U.U.U.U.U.U.U.U.U.U.U.U.U.U.U.U.U.U.U.U.U.U.U.U.U.U.U.U.U.U.U.U.U.U.U.U.U.U.U.U.U.U.",
"U.U.U.U.U.U.U.U.U.U.U.U.U.U.U.U.U.U.U.U.U.U.U.U.U.U.U.U.U.U.U.U.U.U.U.U.U.U.U.U.U.U.U.U.U.U.U.U.U.U.U.U.U.U.U.U.U.U.U.U.U.U.U.U.U.U.U.U.U.U.U.U.U.U.U.U.U.U.U.U.U.U.U.U.U.U.U.U.U.U.U.U.U.U.U.U.U.U.U.U.",
"U.U.U.U.U.U.U.U.U.U.U.U.U.U.U.U.U.U.U.U.U.U.U.U.U.U.U.U.U.U.U.U.U.U.U.U.U.U.U.U.U.U.U.U.U.U.U.U.U.U.U.U.U.U.U.U.U.U.U.U.U.U.U.U.U.U.U.U.U.U.U.U.U.U.U.U.U.U.U.U.U.U.U.U.U.U.U.U.U.U.U.U.U.U.U.U.U.U.U.U.",
"U.U.U.U.U.U.U.U.U.U.U.U.U.U.U.U.U.U.U.U.U.U.U.U.U.U.U.U.U.U.U.U.U.U.U.U.U.U.U.U.U.U.U.U.U.U.U.U.U.U.U.U.U.U.U.U.U.U.U.U.U.U.U.U.U.U.U.U.U.U.U.U.U.U.U.U.U.U.U.U.U.U.U.U.U.U.U.U.U.U.U.U.U.U.U.U.U.U.U.U.",
"U.U.U.U.U.U.U.U.U.U.U.U.U.U.U.U.U.U.U.U.U.U.U.U.U.U.U.U.U.U.U.U.U.U.U.U.~ ~ ~ Q ~ ^ ^ Q ~ ~ U.U.U.U.U.U.U.U.U.U.U.U.U.U.U.U.U.U.U.U.U.U.U.U.U.U.U.U.U.U.U.U.U.U.U.U.U.U.' ' ' ' U.U.U.U.U.U.U.U.U.U.U.U.",
"U.U.U.U.U.U.U.U.U.U.U.U.U.U.U.U.U.U.U.U.U.U.U.U.U.U.U.U.U.U.U.U.U.U.U.^ ~ ~ ~ ~ Q ~ Q ~ ~ ~ U.U.U.U.U.U.U.U.U.U.U.U.U.U.U.U.U.U.U.U.U.U.U.U.U.U.U.U.U.U.U.U.U.U.U.U.U.' ' ' ' ' ' U.U.U.U.U.U.U.U.U.U.U.",
"U.U.U.U.U.U.U.U.U.U.U.U.U.U.U.U.U.U.U.U.U.U.U.U.U.U.U.U.U.U.U.U.U.U.U.~ ~ ~ ^ Q Q Q ! ^ ~ ~ U.U.U.U.U.U.U.U.U.U.U.U.U.U.U.U.U.U.U.U.U.U.U.U.U.U.U.U.U.U.U.U.U.U.U.U.U.' ' ' ' ' ' U.U.U.U.U.U.U.U.U.U.U.",
"U.U.U.U.U.U.U.U.U.U.U.U.U.U.U.U.U.U.U.U.U.U.U.U.U.U.U.U.U.U.U.U.U.U.U.~ ~ ~ ~ ~ ~ ~ ~ ^ ~ ~ ~ U.U.U.U.U.U.U.U.U.U.U.U.U.U.U.U.U.U.U.U.U.U.U.U.U.U.U.U.U.U.U.U.U.U.U.' o.) ' ' o.' ' U.U.U.U.U.U.U.U.U.U.",
"U.U.U.U.U.U.U.U.U.U.U.U.U.U.U.U.U.U.U.U.U.U.U.U.U.U.U.U.U.U.U.U.U.U.U.Q ~ ~ ~ ^ ~ ~ ~ ~ ~ ~ ^ U.U.U.U.U.U.U.U.U.U.U.U.U.U.U.U.U.U.U.U.U.U.U.U.U.U.U.U.U.U.U.U.U.: > : : : : > 2 _ o.U.U.U.U.U.U.U.U.U.U.",
"U.U.U.U.U.U.U.U.U.U.U.U.U.U.U.U.U.U.U.U.U.U.U.U.U.U.U.U.U.U.U.U.U.U.^ Q ! ^ ~ ~ Q ~ ~ ~ Q ~ ~ U.U.U.U.U.U.U.U.U.U.U.U.U.U.U.U.U.U.U.U.U.U.U.U.U.U.U.U.U.U.U.U.: > : ; , > : 1 , > U.U.U.U.U.U.U.U.U.U.U.",
"U.U.U.U.U.U.U.U.U.U.U.U.U.U.U.U.U.U.U.U.U.U.U.U.U.U.U.U.U.U.U.U.U.U.Q ~ ~ ^ ~ ~ ~ ^ ~ ^ Q ~ ^ U.U.U.U.U.U.U.U.U.U.U.U.U.U.U.U.U.U.U.U.U.U.U.U.U.U.U.U.U.U.U.: : : : : > : > : : , : U.U.U.U.U.U.U.U.U.U.",
"U.U.U.U.U.U.U.U.U.U.U.U.U.U.U.U.U.U.U.U.U.U.U.U.U.U.U.U.U.U.U.U.U.U.~ ^ ~ ~ ~ ~ Q ^ ~ ^ Q ^ ~ U.U.U.U.U.U.U.U.U.U.U.U.U.U.U.U.U.U.U.U.U.U.U.U.U.U.U.U.U.U., : > : : > : , , > 1 , : : U.U.U.U.U.U.U.U.U.",
"U.U.U.U.U.U.U.U.U.U.U.U.U.U.U.U.U.U.U.U.U.U.U.U.U.U.U.U.U.U.U.U.U.U.~ ^ ^ ~ ~ ~ ~ ~ ~ ~ ~ ~ ~ U.U.U.U.U.U.U.U.U.U.U.U.U.U.U.U.U.U.U.U.U.U.U.U.U.U.U.U.U.U., : ; 1 > : , : : > : 1 : 1 U.U.U.U.U.U.U.U.U.",
"U.U.U.U.U.U.U.U.U.U.U.U.U.U.U.U.U.U.U.U.U.U.U.U.U.U.U.U.U.U.U.U.U.U.~ ! ~ ^ ^ ~ ~ ~ ~ Q ^ Q ~ ~ U.U.U.U.U.U.U.U.U.U.U.U.U.U.U.U.U.U.U.U.U.U.U.U.U.U.U.U._ 8 > 4 o.X.7 > , ' ' 4 : > : : U.U.U.U.U.U.U.U.",
"U.U.U.U.U.U.U.U.U.U.U.U.U.U.U.U.U.U.U.U.U.U.U.U.U.U.U.U.U.U.U.U.U.~ ( ~ ~ Q ~ ~ ! ^ ~ ~ ! ^ / 2.U.U.U.U.U.U.U.U.U.U.U.U.U.U.U.U.U.U.U.U.U.U.U.U.U.U._ ' ' ' ' ' ' ' ' _ _ _ ' X.' ' ' ' X.U.U.U.U.U.U.U.",
"U.U.U.U.U.U.U.U.U.U.U.U.U.U.U.U.U.U.U.U.U.U.U.U.U.U.U.U.U.U.U.Q ~ 9.9.P.P.P.[ ~ ^ P.P.P.P.P.P.m.9.U.U.U.U.U.U.U.U.U.U.U.U.U.U.U.U.U.U.U.U.U.U.U.U.U.' ' ' ' ' ' X.' ' ' ' ' ' ' X.' _ ' ' U.U.U.U.U.U.U.",
"U.U.U.U.U.U.U.U.U.U.U.U.U.U.U.U.U.U.U.U.U.U.U.U.U.U.U.U.U.U.~ ~ 3.i.P.P.q.^ ~ n.P.P.P.P.P.P.P.P.L.8.U.U.U.U.U.U.U.U.U.U.U.U.U.U.U.U.U.U.U.U.U.U.U.U.o.' o.X._ ' ' ' ' X.' X.' ' _ ' ' ' o.U.U.U.U.U.U.U.",
"U.U.U.U.U.U.U.U.U.U.U.U.U.U.U.U.U.U.U.U.U.U.U.U.U.U.U.U.U.U.~ U.8.P./ ^ ~ { P.P.P.P.P.P.N.      P.c.9.U.U.U.U.U.U.U.U.U.K K K K K U.U.U.U.U.U.U.U.U.U.o.' _ #.X._ _ _ ' ' o.X.' ' X.' ' ' U.U.U.U.U.U.U.",
"U.U.U.U.U.U.U.U.U.U.U.U.U.U.U.U.U.U.U.U.U.U.U.U.U.U.U.U.U.U.Q Q ~ ! ( O       X P.P.P.          P.P.9.U.U.U.U.U.U.U.K K K K K K H H K H U.U.U.U.U.U.9.M.P.P.P.P.P.P.P.P.P.P.S.G.P.P.P.P.M.9.U.U.U.U.U.U.",
"U.U.U.U.U.U.U.U.U.U.U.U.U.U.U.U.U.U.U.U.U.U.U.U.U.U.U.U.U.U.U./ e.P.P.u.        P.P.P.o   o P.P.P.P.L.9.U.U.U.U.U.K K K K K K K H H F H K U.U.U.U.U.9.P.P.P.P.P.P.P.P.P.P.P.P.P.P.P.P.P.P.8.U.U.U.U.U.U.",
"U.U.U.U.U.U.U.U.U.U.U.U.U.U.U.U.U.U.U.U.U.U.U.U.U.U.U.U.U.U.8.i.P.P.P.P.P.P.P.F.P.P.P.P.P.P.P.P.P.P.P.9.U.U.U.U.U.K K F F K F K H H K K K K U.U.U.8.b.P.P.P.P.P.P.P.P.P.P.P.P.P.P.P.P.P.P.P.9.U.U.U.U.U.",
"U.U.U.U.U.U.U.U.U.U.U.U.U.U.U.U.U.U.U.U.U.U.U.U.U.U.U.U.U.U.8.P.P.P.P.P.P.a.P.P.P.P.P.P.P.  N.P.P.P.P.9.U.U.U.U.K D D F D H H K H H K K H K U.U.U.9.P.P.P.P.P.  P.P.P.P.P.P.P...K.P.P.P.P.P.7.U.U.U.U.U.",
"U.U.U.U.U.U.U.U.U.U.U.U.U.U.U.U.U.U.U.U.U.U.U.U.U.U.U.U.U.U.8.P.P.P.P.P.P.    P.P.P.P.P.m.  a.K.P.P.P.i.9.U.H K K K K K K H * * * F F K K K U.U.U.8.P.P.P.P.P.  . P.P.P.P.P.P.  t.P.P.P.P.P.8.U.U.U.U.U.",
"U.U.U.U.U.U.U.U.U.U.U.U.U.U.U.U.U.U.U.U.U.U.U.U.U.U.U.U.U.U.8.P.P.P.K.P.P...p.P.P.P.P.P.P.P.P.K.S.G.K.F.8.U.U.J K K K K K H K K H F D * K K U.U.U.8.P.P.P.K.L.    P.P.P.P.P..     P.P.P.P.P.9.U.U.U.U.U.",
"U.U.U.U.U.U.U.U.U.U.U.U.U.U.U.U.U.U.U.U.U.U.U.U.U.U.U.U.U.U.9.P.P.K.S.S.G.P.P.P.P.& @ % % @.P.S.S.S.K.L.8.U.U.9.P.P.P.P.P.P.I.z.>.P H K K K U.U.U.8.P.G.S.S.K.H.P.P.P.P.P.P.P. .P.K.G.K.P.P.9.U.U.U.U.U.",
"U.U.U.U.U.U.U.U.U.U.U.U.U.U.U.U.U.U.U.U.U.U.U.U.U.U.U.U.U.U.8.F.P.G.S.S.G.P.P.P.P.$ @ $ @ % z.G.G.S.P.F.9.U.8.P.P.P.P.P.P.P.P.P.P.P.P.P.P.9.9.U.U.8.K.G.S.S.K.P.,.% @ $ P.P.P.P.K.S.S.S.K.P.8.U.U.U.U.U.",
"U.U.U.U.U.U.U.U.U.U.U.U.U.U.U.U.U.U.U.U.U.U.U.U.U.U.U.U.U.U.U.y.P.P.K.K.K.P.P.P.P.& $ $ T P.P.P.P.P.P.r.U.9.9.P.P.P.P.P.P.P.P.P.P.P.P.P.P.P.9.U.U.8.P.K.G.K.P.d.& % $ % P.P.P.P.K.G.S.G.P.P.8.U.U.U.U.U.",
"U.U.U.U.U.U.U.U.U.U.U.U.U.U.U.U.U.U.U.U.U.U.U.U.U.U.U.U.U.U.U.y.P.P.P.P.P.P.P.P.P.P.P.P.P.P.P.P.P.P.P.9.U.9.P.P.P.P.P.P.P.P.P.P.P.P.P.P.P.P.u.9.U.9.P.P.P.P.P.P.P.f.- V.P.P.P.P.P.K.K.P.P.J.9.U.U.U.U.U.",
"U.U.U.U.U.U.U.U.U.U.U.U.U.U.U.U.U.U.U.U.U.U.U.U.U.U.U.U.U.U.U.8.P.P.P.P.P.P.P.5 P.P.P.P.) P.P.P.P.P.L.8.U.9.P.P.P.P.N.P.P.P.P.P.P.+ P.P.P.P.L.9.U.8.P.P.P.P.P.P.P.P.P.P.P.P.P.P.P.P.P.P.P.9.U.U.U.U.U.U.",
"U.U.U.U.U.U.U.U.U.U.U.U.U.U.U.U.U.U.U.U.U.U.U.U.U.U.U.U.U.U.U.U.8.P.P.P.P.P.P.%.5 K.P.8 3 P.P.P.P.P.8.U.U.8.P.P.P.P.    P.P.P.P.P.    P.P.P.P.7.U.r.r.P.P.P.P.P.P.8 P.P.K.3 P.P.P.P.P.P.P.8.U.U.U.U.U.U.",
"U.U.U.U.U.U.U.U.U.U.U.U.U.U.U.U.U.U.U.U.U.U.U.U.U.U.U.U.U.U.U.U.9.9.P.P.P.P.P.P.P.g.6 K.P.P.P.P.P.8.r.U.U.8.P.P.K.K.X N.V.f.= P.P. .P.K.K.K.P.y.U.U.9.J.P.P.P.P.P.P.3 G.+.4 P.P.P.P.P.P.9.U.U.U.U.U.U.U.",
"U.U.U.U.U.U.U.U.U.U.U.U.U.U.U.U.U.U.U.U.U.U.U.U.U.U.U.U.U.U.U.U.c 8.9.P.P.P.P.P.P.P.P.P.P.P.P.P.8.8.U.U.9.8.K.G.C.S.K.V.@ & & ,.P.K.K.S.C.G.P.9.U.U.U.y.P.P.P.P.P.P.P.+.v.P.P.P.P.P.P.8.=.U.U.U.U.U.U.U.",
"U.U.U.U.U.U.U.U.U.U.U.U.U.U.U.U.U.U.U.U.U.U.U.U.U.U.U.U.U.U.U.U.b b | 9.F.P.P.P.P.P.P.P.P.P.L.8.;.c U.U.U.9.K.S.S.G.K.P.K.& & H.P.P.K.C.C.S.P.9.U.U.U.U.8.u.P.P.P.P.P.P.P.P.P.P.P.P.9.:.b U.U.U.U.U.U.U.",
"U.U.U.U.U.U.U.U.U.U.U.U.U.U.U.U.U.U.U.U.U.U.U.U.U.U.U.U.U.U.U.U.b c c w 8.9.9.J.P.P.P.L.i.8.8.l v S U.U.U.9.P.K.K.K.P.P.P.P.P.P.P.P.P.K.K.P.P.9.U.U.U.b b ;.8.p.P.P.P.P.P.P.P.P.p.9.A b b U.U.U.U.U.U.U.",
"U.U.U.U.U.U.U.U.U.U.U.U.U.U.U.U.U.U.U.U.U.U.U.U.U.U.U.U.U.U.U.U.U.c c r w w B y.r.9.r.8.B e e u b b r.U.U.9.L.P.P.P.P.P.5 P.P.P.5 P.P.P.P.P.A.8.U.U.U.c v c k 6.8.9.r.i.p.y.9.8.6.r r b b U.U.U.U.U.U.U.",
"U.U.U.U.U.U.U.U.U.U.U.U.U.U.U.U.U.U.U.U.U.U.U.U.U.U.U.U.U.U.U.U.8.c c w 0 0 9 i c b v z r 9 9 9 b P.9.U.U.U.r.P.P.P.P.P.8 6 X.3 ` P.P.P.P.P.8.8.U.U.U.8.c b x 0 0 0 C | =.I c 0 9 0 0 b N U.U.U.U.U.U.U.",
"U.U.U.U.U.U.U.U.U.U.U.U.U.U.U.U.U.U.U.U.U.U.U.U.U.U.U.U.U.U.U.8.9.P.z r 0 e 0 x y v b s e e 9 e a Z P.8.U.U.8.c.P.P.P.P.P.P.K.P.P.P.P.P.P.M.8.U.U.U.8.9.1.c i r 0 0 y y b v b 0 r 0 0 l 9.9.U.U.U.U.U.U.",
"U.U.U.U.U.U.U.U.U.U.U.U.U.U.U.U.U.U.U.U.U.U.U.U.U.U.U.U.U.U.9.9.P.P.d s z s p s v v y n B <.s a 0 0 Z.b.r.U.U.r.N.P.P.P.P.P.P.P.P.P.P.P.A.9.U.U.U.9.8.P.9 0 u 0 0 e y S v v b e 0 u a s P.i.9.U.U.U.U.U.",
"U.U.U.U.U.U.U.U.U.U.U.U.U.U.U.U.U.U.U.U.U.U.U.U.U.U.U.U.U.U.8.P.P.P.b b y f s f P.P.P.P.P.P.s r r e s E 9.U.U.S 9.9.P.P.P.P.P.P.P.P.P.9.9.v U.U.U.8.H.0 e e 0 0 C Z.l.l.x.H.a a s s b c P.P.9.9.U.U.U.U.",
"U.U.U.U.U.U.U.U.U.U.U.U.U.U.U.U.U.U.U.U.U.U.U.U.U.U.U.U.U.9.b.P.P.P.b b c v v c P.L.] P.P.P.j.0 e 0 c c b w U.b y 8.9.r.B.P.P.P.A.9.8.8.b c U.U.U v v c 0 r r 9 P.P.S.P.P.P.z v v b b c P.P.P.9.U.U.U.U.",
"U.U.U.U.U.U.U.U.U.U.U.U.U.U.U.U.U.U.U.U.U.U.U.U.U.U.U.U.U.7.P.P.P.P.r r e r r r P.~ ~ ^ P.P.P.g 0 c v v v 9 w w c y 0 } 9.8.8.8.3.6.9 0 b d 0 0 w c v c x 0 r P.P.` , : P.P.b c v y v k P.P.P.J.y.U.U.U.",
"U.U.U.U.U.U.U.U.U.U.U.U.U.U.U.U.U.U.U.U.U.U.U.U.U.U.U.U.y.u.P.P.P.P.r 0 0 e g 0 P.Q ^ ~ P.P.P.P.j b b v c 0 0 0 c c 0 r 0 v b c 0 r 0 w c a r e 0 b v b b e P.P.P.4.: , P.P.V 0 9 r w r P.P.P.P.y.U.U.U.",
"U.U.U.U.U.U.U.U.U.U.U.U.U.U.U.U.U.U.U.U.U.U.U.U.U.U.U.U.8.D.P.P.P.P.r r r 0 e g P.P.L.P.P.P.P.P.P.H.b b u r e 0 a a r 0 0 v c c u r r a a c 0 e r b v b W P.P.P.P.P.5.K.P.P.k.e 9 w 0 r P.P.P.P.8.8.U.U.",
"U.U.U.U.U.U.U.U.U.U.U.U.U.U.U.U.U.U.U.U.U.U.U.U.U.U.U.U.9.P.P.P.P.P.L.j.L.P.H.P.P.P.P.P.P.P.P.P.P.P.P.H.B e e r m h.P.P.P.L.x.P.P.P.P.P.x.v r r r M *.P.P.P.P.P.P.P.P.P.P.P.P.q H.0 P.P.P.P.P.P.b.8.U.U.",
"U.U.U.U.U.U.U.U.U.U.U.U.U.U.U.U.U.U.U.U.U.U.U.U.U.U.U.U.8.P.P.P.P.P.P.P.P.P.P.P.P.P.[ P.P.P.P.P.P.P.P.P.P.9.F.P.P.P.P.P.P.P.P.P.P.P.P.P.P.P.P.9.L.P.P.P.P.P.P.P.P.P.P.P.P.P.P.P.P.P.P.P.P.P.P.P.L.8.U.U.",
"U.U.U.U.U.U.U.U.U.U.U.U.U.U.U.U.U.U.U.U.U.U.U.U.U.U.U.U.7.P.P.P.P.P.P.P.P.P.P.P.P.~ ^ ~ P.P.P.P.P.P.P.P.P.9.P.P.P.P.P.P.P.G * * P.P.P.P.P.P.P.p.u.P.P.P.P.P.P.P.P.$.: > P.P.P.P.P.P.P.P.P.P.P.P.P.8.U.U.",
"U.U.U.U.U.U.U.U.U.U.U.U.U.U.U.U.U.U.U.U.U.U.U.U.U.U.U.U.8.P.P.P.P.P.P.P.P.P.P.P.P.^ ~ ~ P.P.P.P.P.P.P.P.D.y.P.P.P.P.P.P.P.* D D P.P.P.P.P.P.P.N.8.P.P.P.P.P.P.P.P.1 , : P.P.P.P.P.P.P.P.P.P.P.P.P.r.U.U.",
"U.U.U.U.U.U.U.U.U.U.U.U.U.U.U.U.U.U.U.U.U.U.U.U.U.U.U.U.9.B.P.P.P.P.P.P.P.P.P.P.P.P.P.P.P.P.P.P.P.P.P.P.c.y.P.P.P.P.P.P.P.P.Y P.P.P.P.P.P.P.P.P.9.P.P.P.P.P.P.P.P.P.> ' P.P.P.P.P.P.P.P.P.P.P.P.L.9.U.U.",
"U.U.U.U.U.U.U.U.U.U.U.U.U.U.U.U.U.U.U.U.U.U.U.U.U.U.U.U.9.8.P.P.P.P.P.P.P.P.P.P.P.P.P.P.P.P.P.P.P.P.P.P.i.u.P.P.P.P.P.P.P.P.P.P.P.P.P.P.P.P.P.P.8.P.P.P.P.P.P.P.P.P.P.P.P.P.P.P.P.P.P.P.P.P.P.P.u.8.U.U.",
"U.U.U.U.U.U.U.U.U.U.U.U.U.U.U.U.U.U.U.U.U.U.U.U.U.U.U.U.U.8.P.P.P.P.P.P.P.P.P.P.P.P.P.P.P.P.P.P.P.P.P.P.c.8.P.P.P.P.P.P.P.P.P.P.P.P.P.P.P.P.P.A.8.P.P.P.P.P.P.P.P.P.P.P.P.P.P.P.P.P.P.P.P.P.P.P.8.U.U.U.",
"U.U.U.U.U.U.U.U.U.U.U.U.U.U.U.U.U.U.U.U.U.U.U.U.U.U.U.U.U.9.F.P.P.P.P.P.P.P.P.P.P.w.^ Q P.P.P.P.P.P.P.P.8.8.P.P.P.P.P.P.P.L D D P.P.P.P.P.P.P.r.8.P.P.P.P.P.P.P.P.P.1 > P.P.P.P.P.P.P.P.P.P.P.p.8.U.U.U.",
"U.U.U.U.U.U.U.U.U.U.U.U.U.U.U.U.U.U.U.U.U.U.U.U.U.U.U.U.U.U.9.P.P.P.P.P.P.P.P.P.P.~ Q ~ P.P.P.P.P.P.P.i.8.9.P.P.P.P.P.P.P.R * D P.P.P.P.P.P.P.9.8.7.P.P.P.P.P.P.P.s.> , g.P.P.P.P.P.P.P.P.P.P.7.U.U.U.U.",
"U.U.U.U.U.U.U.U.U.U.U.U.U.U.U.U.U.U.U.U.U.U.U.U.U.U.U.U.U.U.9.9.P.P.P.P.P.P.P.P.P.P.~ { P.P.P.P.P.P.F.8.U.9.y.P.P.P.P.P.P.P.z.P.P.P.P.P.P.P.J.7.U.8.9.P.P.P.P.P.P.P.> 1 P.P.P.P.P.P.P.P.P.P.9.9.U.U.U.U.",
"U.U.U.U.U.U.U.U.U.U.U.U.U.U.U.U.U.U.U.U.U.U.U.U.U.U.U.U.U.U.U.9.9.P.P.P.P.P.P.P.P.P.P.P.P.P.P.P.P.p.9.U.U.U.9.F.P.P.P.P.P.P.P.P.P.P.P.P.P.P.7.U.U.U.9.9.P.P.P.P.P.P.P.P.P.P.P.P.P.P.P.P.F.y.8.U.U.U.U.U.",
"U.U.U.U.U.U.U.U.U.U.U.U.U.U.U.U.U.U.U.U.U.U.U.U.U.U.U.U.U.U.U.U.9.9.u.P.P.P.P.P.P.P.P.P.P.P.P.L.9.9.U.U.U.U.U.y.F.P.P.P.P.P.P.P.P.P.P.P.P.8.8.U.U.U.U.8.8.9.P.P.P.P.P.P.P.P.P.P.P.P.F.9.8.U.U.U.U.U.U.U.",
"U.U.U.U.U.U.U.U.U.U.U.U.U.U.U.U.U.U.U.U.U.U.U.U.U.U.U.U.U.U.U.U.U.U.8.9.9.r.B.L.J.L.P.D.i.y.9.9.9.U.U.U.U.U.U.U.8.9.L.P.P.P.P.P.P.P.P.9.8.8.U.U.U.U.U.U.U.8.9.8.8.B.P.L.P.L.m.9.9.8.8.U.U.U.U.U.U.U.U.U.",
"U.U.U.U.U.U.U.U.U.U.U.U.U.U.U.U.U.U.U.U.U.U.U.U.U.U.U.U.U.U.U.U.U.U.U.U.U.8.9.y.8.9.r.r.y.U.U.U.U.U.U.U.U.U.U.U.U.r.9.9.8.8.8.9.9.9.8.9.U.U.U.U.U.U.U.U.U.U.U.U.8.8.8.9.3.9.8.y.U.U.U.U.U.U.U.U.U.U.U.U.",
"U.U.U.U.U.U.U.U.U.U.U.U.U.U.U.U.U.U.U.U.U.U.U.U.U.U.U.U.U.U.U.U.U.U.U.U.U.U.U.U.U.U.U.U.U.U.U.U.U.U.U.U.U.U.U.U.U.U.U.U.U.U.U.U.U.U.U.U.U.U.U.U.U.U.U.U.U.U.U.U.U.U.U.U.U.U.U.U.U.U.U.U.U.U.U.U.U.U.U.U."
};
